HIERARCHY
ROOT Hips
{
	OFFSET 0.000000 0.000000 0.000000
	CHANNELS 6 Xposition Yposition Zposition Yrotation Xrotation Zrotation
	JOINT Chest
	{
		OFFSET 0.000000 -0.009281 11.569106
		CHANNELS 3 Yrotation Xrotation Zrotation
		JOINT Chest2
		{
			OFFSET -0.000000 0.016865 9.269641
			CHANNELS 3 Yrotation Xrotation Zrotation
			JOINT Chest3
			{
				OFFSET -0.000000 0.000001 8.374491
				CHANNELS 3 Yrotation Xrotation Zrotation
				JOINT Chest4
				{
					OFFSET -0.000000 0.000001 8.374493
					CHANNELS 3 Yrotation Xrotation Zrotation
					JOINT Neck
					{
						OFFSET -0.000000 0.000002 12.152554
						CHANNELS 3 Yrotation Xrotation Zrotation
						JOINT Head
						{
							OFFSET -0.000000 0.040101 7.802319
							CHANNELS 3 Yrotation Xrotation Zrotation
							End Site
							{
								OFFSET -0.000000 0.020947 14.853096
							}
						}
					}
					JOINT RightCollar
					{
						OFFSET 2.894404 0.000001 6.791374
						CHANNELS 3 Yrotation Xrotation Zrotation
						JOINT RightShoulder
						{
							OFFSET 13.574684 0.000001 0.000000
							CHANNELS 3 Yrotation Xrotation Zrotation
							JOINT RightElbow
							{
								OFFSET 23.923903 0.000002 0.000000
								CHANNELS 3 Yrotation Xrotation Zrotation
								JOINT RightWrist
								{
									OFFSET 19.846718 0.012767 0.000000
									CHANNELS 3 Yrotation Xrotation Zrotation
									End Site
									{
										OFFSET 14.973145 0.000001 0.000000
									}
								}
							}
						}
					}
					JOINT LeftCollar
					{
						OFFSET -2.894404 0.000001 6.791374
						CHANNELS 3 Yrotation Xrotation Zrotation
						JOINT LeftShoulder
						{
							OFFSET -13.574684 -0.000001 0.000000
							CHANNELS 3 Yrotation Xrotation Zrotation
							JOINT LeftElbow
							{
								OFFSET -23.923903 -0.000002 0.000000
								CHANNELS 3 Yrotation Xrotation Zrotation
								JOINT LeftWrist
								{
									OFFSET -19.846718 0.012763 0.000000
									CHANNELS 3 Yrotation Xrotation Zrotation
									End Site
									{
										OFFSET -14.973145 -0.000001 0.000000
									}
								}
							}
						}
					}
				}
			}
		}
	}
	JOINT RightHip
	{
		OFFSET 9.469263 0.004643 0.045487
		CHANNELS 3 Yrotation Xrotation Zrotation
		JOINT RightKnee
		{
			OFFSET 0.000000 0.002661 -40.478676
			CHANNELS 3 Yrotation Xrotation Zrotation
			JOINT RightAnkle
			{
				OFFSET 0.000000 0.049106 -35.224068
				CHANNELS 3 Yrotation Xrotation Zrotation
				JOINT RightToe
				{
					OFFSET -0.000001 12.539529 -6.151390
					CHANNELS 3 Yrotation Xrotation Zrotation
					End Site
					{
						OFFSET -0.000001 5.044994 -1.291870
					}
				}
			}
		}
	}
	JOINT LeftHip
	{
		OFFSET -9.469263 0.004641 0.045487
		CHANNELS 3 Yrotation Xrotation Zrotation
		JOINT LeftKnee
		{
			OFFSET 0.000000 0.002661 -40.478676
			CHANNELS 3 Yrotation Xrotation Zrotation
			JOINT LeftAnkle
			{
				OFFSET 0.000000 0.049106 -35.224068
				CHANNELS 3 Yrotation Xrotation Zrotation
				JOINT LeftToe
				{
					OFFSET -0.000001 12.539529 -6.151390
					CHANNELS 3 Yrotation Xrotation Zrotation
					End Site
					{
						OFFSET -0.000001 5.044994 -1.291870
					}
				}
			}
		}
	}
}
MOTION
Frames: 12
Frame Time: 0.016667
-6.326548 20.194632 76.836052 -3.035981 -1.307808 -95.825901 -1.228607 -4.104750 -0.367669 -0.747915 -1.842222 -0.198177 -0.747915 -1.842222 -0.198178 -0.561486 -1.381427 -0.150875 4.285270 -15.751774 -8.027465 5.044036 6.958645 -13.389613 9.190340 5.777243 -1.222539 46.400952 -19.511711 -12.328699 21.501748 -38.779540 45.301933 -28.212402 39.705543 66.978693 -6.956076 4.853551 -3.975115 -43.272780 -6.788178 13.290087 -41.833071 -55.568134 -20.242850 17.458223 17.535022 -58.368515 -1.759714 16.471565 -17.854632 17.246105 -40.469595 -20.997538 -11.108617 23.915907 4.052104 1.455818 0.073453 0.074088 -2.980683 9.621368 -17.086041 9.773777 -45.579669 0.611987 9.447334 -19.159953 2.569748 -30.142789 47.700317 -13.685472 
-6.302495 20.089432 76.901077 -3.019117 -1.174709 -95.762619 -1.317910 -4.100665 -0.404235 -0.754398 -1.835648 -0.209539 -0.754398 -1.835648 -0.209539 -0.566379 -1.376481 -0.159408 4.281776 -15.752679 -8.033061 5.035576 6.956522 -13.401303 9.185705 5.744301 -1.204847 46.423536 -19.444427 -12.334225 21.491359 -38.787193 45.294734 -28.212598 39.700867 66.968748 -6.962522 4.839776 -3.959222 -43.222359 -6.781415 13.296346 -41.871037 -55.604789 -20.250717 17.464780 17.500843 -58.352232 -1.705355 16.357975 -17.794033 17.036957 -40.149126 -20.664092 -11.557690 23.582630 3.849895 1.406975 0.096006 0.024360 -3.337477 9.982473 -17.320666 10.006853 -44.812694 0.362326 10.577490 -16.341479 3.933348 -30.556952 43.308782 -12.472886 
-6.274609 19.989611 76.990273 -2.964503 -1.069190 -95.732874 -1.377259 -4.073880 -0.399270 -0.758741 -1.818135 -0.215706 -0.758740 -1.818136 -0.215707 -0.569650 -1.363337 -0.164023 4.276317 -15.767046 -8.048238 5.020975 6.929027 -13.431241 9.181912 5.725905 -1.196546 46.448599 -19.402080 -12.364323 21.512782 -38.766743 45.272574 -28.210297 39.685933 66.967908 -6.966521 4.827551 -3.944900 -43.179503 -6.778460 13.302812 -41.909651 -55.660308 -20.251729 17.470511 17.463510 -58.314844 -1.622496 16.254150 -17.700181 16.877392 -39.766789 -20.385302 -12.029743 23.210139 3.796573 1.369271 0.131361 -0.002106 -3.684987 10.394162 -17.588166 10.149669 -44.075774 0.224187 11.598206 -13.632276 5.246296 -30.758432 39.068388 -11.239353 
-6.245472 19.880924 77.101318 -2.884885 -1.003071 -95.702698 -1.395654 -4.034382 -0.390629 -0.760968 -1.791419 -0.220083 -0.760968 -1.791419 -0.220084 -0.571325 -1.343294 -0.167280 4.267057 -15.791525 -8.065184 4.999433 6.882446 -13.465608 9.184570 5.710988 -1.176942 46.473837 -19.379516 -12.418530 21.526012 -38.725677 45.265207 -28.210493 39.677764 66.954835 -6.972020 4.828480 -3.929698 -43.156882 -6.800623 13.305033 -41.938109 -55.669180 -20.246624 17.454017 17.384563 -58.274935 -1.488340 16.154833 -17.626763 16.675348 -39.342238 -20.072628 -12.508347 22.804632 3.610106 1.353299 0.162359 -0.016474 -4.001019 10.846502 -17.922241 10.159560 -43.377022 0.121067 12.569989 -11.084324 6.464350 -30.779267 35.071160 -10.035603 
-6.219319 19.774317 77.233711 -2.775624 -0.936006 -95.651212 -1.408198 -3.980061 -0.394837 -0.763561 -1.756867 -0.233193 -0.763561 -1.756867 -0.233194 -0.573296 -1.317361 -0.177077 4.256460 -15.819095 -8.071062 4.979657 6.830423 -13.479742 9.190165 5.728176 -1.172060 46.496257 -19.402619 -12.484318 21.531625 -38.697765 45.256195 -28.210102 39.673611 66.936783 -6.990532 4.859255 -3.911744 -43.139973 -6.827922 13.344056 -41.954297 -55.707067 -20.226666 17.425266 17.329826 -58.251200 -1.333189 16.083019 -17.551978 16.445197 -38.890213 -19.723682 -13.013310 22.343719 3.360321 1.355408 0.214213 -0.028150 -4.327970 11.340774 -18.263403 10.123723 -42.687699 -0.108274 13.294919 -8.926194 7.740007 -30.617365 31.470605 -8.903360 
-6.205286 19.666330 77.382851 -2.635997 -0.843394 -95.581244 -1.441776 -3.899819 -0.419522 -0.769506 -1.718609 -0.251743 -0.769507 -1.718609 -0.251743 -0.577794 -1.288643 -0.190958 4.249955 -15.843534 -8.065605 4.971359 6.784864 -13.471335 9.192516 5.720842 -1.176787 46.504429 -19.415089 -12.508384 21.580198 -38.685570 45.209183 -28.200697 39.660241 66.928129 -7.023223 4.906574 -3.874239 -43.105901 -6.875059 13.406989 -41.981000 -55.757553 -20.207376 17.389754 17.278734 -58.243127 -1.188061 16.051650 -17.403232 16.248325 -38.400358 -19.414473 -13.562201 21.827469 3.039321 1.382877 0.280162 -0.024057 -4.698082 11.876423 -18.577583 10.100807 -41.985641 -0.427826 13.751484 -7.056181 8.793042 -30.127814 28.278033 -7.822946 
-6.213205 19.542175 77.545418 -2.500265 -0.715377 -95.468081 -1.512424 -3.816715 -0.465394 -0.782220 -1.686851 -0.266981 -0.782221 -1.686851 -0.266981 -0.587361 -1.264799 -0.202382 4.257235 -15.853643 -8.067234 4.985056 6.766636 -13.471437 9.203840 5.717239 -1.221832 46.512632 -19.416047 -12.523023 21.621196 -38.698144 45.156904 -28.185785 39.632391 66.925458 -7.047405 4.946270 -3.855068 -43.050204 -6.907133 13.489800 -42.038831 -55.843295 -20.181865 17.360060 17.245135 -58.252805 -1.074611 16.015014 -17.219496 16.109373 -37.854134 -19.077255 -14.223853 21.211581 2.697547 1.444067 0.386778 0.027939 -5.125535 12.400301 -18.913892 10.048731 -41.238186 -0.696214 14.025595 -5.399743 9.481808 -29.366986 25.437726 -6.819606 
-6.224443 19.410490 77.718918 -2.394749 -0.579413 -95.353115 -1.590964 -3.759267 -0.505832 -0.799384 -1.663963 -0.284340 -0.799385 -1.663963 -0.284340 -0.600270 -1.247602 -0.215418 4.270831 -15.848395 -8.070319 5.008821 6.777259 -13.472331 9.206810 5.697341 -1.255076 46.540076 -19.404470 -12.536425 21.626715 -38.708014 45.126589 -28.182083 39.587199 66.916258 -7.072449 4.967340 -3.846453 -42.976387 -6.909697 13.587128 -42.127343 -55.935148 -20.155936 17.351732 17.214990 -58.278220 -0.959572 15.946376 -17.026135 15.958667 -37.298338 -18.733004 -14.863031 20.612247 2.375952 1.484449 0.459012 0.044780 -5.582162 12.889301 -19.242979 9.953011 -40.475626 -0.937270 14.098787 -4.018075 10.111552 -28.477214 22.884843 -5.927348 
-6.223066 19.280592 77.902710 -2.321827 -0.419185 -95.172669 -1.686588 -3.748404 -0.599662 -0.820797 -1.651564 -0.309345 -0.820797 -1.651565 -0.309345 -0.616391 -1.238261 -0.234212 4.284392 -15.821599 -8.074709 5.030448 6.827728 -13.476206 9.201891 5.685196 -1.261959 46.572840 -19.388496 -12.538074 21.622610 -38.708970 45.107666 -28.178509 39.529160 66.898766 -7.086548 4.997331 -3.839195 -42.911954 -6.908139 13.700314 -42.188924 -56.015747 -20.179340 17.349760 17.177543 -58.316258 -0.883343 15.821162 -16.995826 15.699176 -36.757431 -18.330556 -15.424420 20.006669 2.118614 1.509933 0.552254 0.042872 -6.108806 13.326398 -19.665274 9.783548 -39.691647 -1.035578 14.141321 -2.812058 10.741751 -27.609366 20.456160 -5.100418 
-6.201893 19.154240 78.096901 -2.243661 -0.263958 -94.965113 -1.768206 -3.743481 -0.704646 -0.846635 -1.642255 -0.338188 -0.846636 -1.642256 -0.338188 -0.635841 -1.231228 -0.255900 4.298232 -15.785856 -8.088803 5.048417 6.894481 -13.498294 9.196188 5.691395 -1.288913 46.619507 -19.412306 -12.529100 21.618971 -38.695272 45.085006 -28.184200 39.463918 66.873576 -7.092342 5.033239 -3.828794 -42.867394 -6.917904 13.823989 -42.207916 -56.068186 -20.241165 17.348074 17.118425 -58.357614 -0.803926 15.660222 -17.139716 15.300674 -36.228645 -17.789269 -15.893061 19.475463 1.998975 1.505392 0.584585 0.018737 -6.664534 13.755188 -20.211720 9.484258 -38.871078 -0.902092 14.184623 -1.801125 11.409205 -26.785828 18.120278 -4.359529 
-6.159602 19.032162 78.307236 -2.141375 -0.113051 -94.741663 -1.841014 -3.728720 -0.809587 -0.873018 -1.632899 -0.366707 -0.873018 -1.632900 -0.366708 -0.655699 -1.224155 -0.277346 4.311743 -15.745669 -8.114669 5.061164 6.969038 -13.542549 9.189511 5.711773 -1.304107 46.679961 -19.417475 -12.540746 21.623846 -38.680379 45.047959 -28.180980 39.392621 66.851651 -7.089622 5.086748 -3.803020 -42.822725 -6.974618 13.933507 -42.227102 -56.117941 -20.316471 17.356390 17.088151 -58.389464 -0.719200 15.476194 -17.350812 14.852670 -35.627568 -17.124252 -16.325448 18.917397 1.819679 1.475622 0.584626 -0.002832 -7.239739 14.211844 -20.821864 9.097794 -38.019323 -0.568426 14.123538 -1.002264 12.001250 -25.882676 15.960754 -3.696033 
-6.104408 18.922497 78.528305 -2.025769 0.044622 -94.536286 -1.922062 -3.706473 -0.894138 -0.897665 -1.622079 -0.398239 -0.897665 -1.622080 -0.398240 -0.674261 -1.215978 -0.301044 4.319094 -15.707483 -8.140926 5.062443 7.039424 -13.589782 9.182157 5.724433 -1.308655 46.740791 -19.408942 -12.544769 21.633866 -38.681533 44.998758 -28.165509 39.323223 66.843291 -7.088471 5.132634 -3.769238 -42.768005 -6.992476 14.057389 -42.269585 -56.196310 -20.372228 17.367317 17.054064 -58.404531 -0.641015 15.275803 -17.447525 14.477839 -34.951789 -16.584609 -16.702741 18.340754 1.651041 1.422374 0.583748 -0.021372 -7.820036 14.672230 -21.382290 8.654506 -37.133898 -0.275992 13.994645 -0.334434 12.420179 -24.826471 14.011676 -3.102137 
